<svg width="43" height="42" viewBox="0 0 43 42" fill="none" xmlns="http://www.w3.org/2000/svg">
<path d="M18.7383 0.119999L1.38195 7.96664C0.538725 8.34141 0 9.18463 0 10.0981V30.4525L0.866644 30.0544L0.890067 30.0309L18.7383 21.7627V0.119999ZM2.64678 34.411L20.167 41.8126C20.4715 41.9297 20.776 42 21.0805 42C21.385 42 21.6895 41.9297 21.994 41.8126L39.4674 34.4344L21.0805 25.8617L2.64678 34.411ZM40.7791 7.96664L23.4228 0.119999V21.7627L41.3881 30.1481L42.1611 30.4994V10.0981C42.1611 9.18463 41.6223 8.34141 40.7791 7.96664Z" fill="url(#paint0_linear_1_22)"/>
<defs>
<linearGradient id="paint0_linear_1_22" x1="42.1611" y1="21.0595" x2="0.376438" y2="21.0595" gradientUnits="userSpaceOnUse">
<stop stop-color="#BF22FE"/>
<stop offset="0.48" stop-color="#7663FE"/>
<stop offset="1" stop-color="#30A1F2"/>
</linearGradient>
</defs>
</svg>
