<svg width="24" height="24" viewBox="0 0 24 24" fill="none" xmlns="http://www.w3.org/2000/svg">
	<path d="M9 15L6 22" stroke="currentColor" stroke-width="1.5" stroke-linecap="round" />
	<path d="M15 15L18 22" stroke="currentColor" stroke-width="1.5" stroke-linecap="round" />
	<path d="M12 15V22" stroke="currentColor" stroke-width="1.5" stroke-linecap="round" />
	<path d="M15.5559 6C15.6959 5.8737 15.8078 5.71944 15.8844 5.54718C15.9609 5.37492 16.0005 5.18851 16.0005 5C16.0005 4.81149 15.9609 4.62508 15.8844 4.45282C15.8078 4.28056 15.6959 4.1263 15.5559 4C15.416 3.8737 15.3041 3.71944 15.2275 3.54718C15.151 3.37492 15.1114 3.18851 15.1114 3C15.1114 2.81149 15.151 2.62508 15.2275 2.45282C15.3041 2.28056 15.416 2.1263 15.5559 2M11.9999 6C12.1399 5.8737 12.2518 5.71944 12.3284 5.54718C12.4049 5.37492 12.4445 5.18851 12.4445 5C12.4445 4.81149 12.4049 4.62508 12.3284 4.45282C12.2518 4.28056 12.1399 4.1263 11.9999 4C11.86 3.8737 11.7481 3.71944 11.6715 3.54718C11.595 3.37492 11.5554 3.18851 11.5554 3C11.5554 2.81149 11.595 2.62508 11.6715 2.45282C11.7481 2.28056 11.86 2.1263 11.9999 2M8.44394 6C8.58389 5.8737 8.69577 5.71944 8.77235 5.54718C8.84893 5.37492 8.8885 5.18851 8.8885 5C8.8885 4.81149 8.84893 4.62508 8.77235 4.45282C8.69577 4.28056 8.58389 4.1263 8.44394 4C8.30399 3.8737 8.19211 3.71944 8.11554 3.54718C8.03896 3.37492 7.99939 3.18851 7.99939 3C7.99939 2.81149 8.03896 2.62508 8.11554 2.45282C8.19211 2.28056 8.30399 2.1263 8.44394 2" stroke="currentColor" stroke-width="1.5" stroke-linecap="round" />
	<path d="M7.5 19H16.5" stroke="currentColor" stroke-width="1.5" stroke-linecap="round" />
	<path d="M12 15C13.6863 15.0015 15.3167 14.3956 16.5926 13.2932C17.8686 12.1908 18.7048 10.6656 18.948 8.997C19.011 8.562 19.042 8.345 18.892 8.172C18.742 8 18.5 8 18.016 8H5.98403C5.50003 8 5.25803 8 5.10803 8.172C4.95803 8.345 4.98903 8.562 5.05203 8.997C5.2951 10.6657 6.13121 12.191 7.40722 13.2934C8.68324 14.3959 10.3137 15.0017 12 15Z" stroke="currentColor" stroke-width="1.5" stroke-linecap="round" stroke-linejoin="round" />
	<path d="M19 10H20M5 10H4" stroke="currentColor" stroke-width="1.5" stroke-linecap="round" />
</svg>
