<svg width="24" height="24" viewBox="0 0 24 24" fill="none" xmlns="http://www.w3.org/2000/svg">
	<path d="M20 21H4" stroke="currentColor" stroke-width="1.5" stroke-linecap="round" stroke-linejoin="round" />
	<path d="M14.9051 3.66597C16.7807 4.46207 18.3009 5.91584 19.1801 7.75401C20.0592 9.59218 20.2366 11.6882 19.6791 13.648L19.6041 13.913C19.5267 14.1852 19.3924 14.4378 19.2099 14.6541C19.0275 14.8704 18.8011 15.0454 18.5459 15.1675C18.2906 15.2896 18.0123 15.356 17.7294 15.3623C17.4465 15.3686 17.1655 15.3146 16.9051 15.204L5.21706 10.242C4.95649 10.1315 4.72241 9.96678 4.53038 9.75885C4.33835 9.55092 4.19276 9.30451 4.10329 9.03599C4.01381 8.76746 3.9825 8.48298 4.01142 8.20142C4.04035 7.91987 4.12885 7.64769 4.27106 7.40297L4.40906 7.16397C5.43195 5.40217 7.06295 4.0745 8.99566 3.43038C10.9284 2.78627 13.0298 2.87005 14.9051 3.66597Z" stroke="currentColor" stroke-width="1.5" stroke-linecap="round" stroke-linejoin="round" />
	<path d="M14.905 3.66595L15.164 4.71295C15.933 7.82795 15.258 11.123 13.325 13.684" stroke="currentColor" stroke-width="1.5" stroke-linecap="round" stroke-linejoin="round" />
	<path d="M14.905 3.66595L13.972 4.20695C12.6018 5.00219 11.4262 6.09299 10.5308 7.39993C9.63545 8.70687 9.04279 10.197 8.79602 11.762" stroke="currentColor" stroke-width="1.5" stroke-linecap="round" stroke-linejoin="round" />
	<path d="M11.06 12.72L7.55005 21" stroke="currentColor" stroke-width="1.5" stroke-linecap="round" stroke-linejoin="round" />
</svg>
