<svg width="24" height="24" viewBox="0 0 24 24" fill="none" xmlns="http://www.w3.org/2000/svg">
	<path d="M12 5V3" stroke="currentColor" stroke-width="1.5" stroke-linecap="round" stroke-linejoin="round" />
	<path d="M2 13H4" stroke="currentColor" stroke-width="1.5" stroke-linecap="round" stroke-linejoin="round" />
	<path d="M4.89001 5.89001L6.00001 7.00001" stroke="currentColor" stroke-width="1.5" stroke-linecap="round" stroke-linejoin="round" />
	<path d="M19.11 5.89001L18 7.00001" stroke="currentColor" stroke-width="1.5" stroke-linecap="round" stroke-linejoin="round" />
	<path d="M22 12.88H20" stroke="currentColor" stroke-width="1.5" stroke-linecap="round" stroke-linejoin="round" />
	<path d="M3 17.382C3.5667 17.1303 4.1799 17.0002 4.8 17.0002C5.4201 17.0002 6.0333 17.1303 6.6 17.382C7.1667 17.6338 7.7799 17.7638 8.4 17.7638C9.0201 17.7638 9.6333 17.6338 10.2 17.382C10.7667 17.1303 11.3799 17.0002 12 17.0002C12.6201 17.0002 13.2333 17.1303 13.8 17.382C14.3667 17.6338 14.9799 17.7638 15.6 17.7638C16.2201 17.7638 16.8333 17.6338 17.4 17.382C17.9667 17.1303 18.5799 17.0002 19.2 17.0002C19.8201 17.0002 20.4333 17.1303 21 17.382" stroke="currentColor" stroke-width="1.5" stroke-linecap="round" stroke-linejoin="round" />
	<path d="M6.59998 20.618C7.16668 20.8697 7.77988 20.9998 8.39998 20.9998C9.02007 20.9998 9.63327 20.8697 10.2 20.618C10.7667 20.3663 11.3799 20.2362 12 20.2362C12.6201 20.2362 13.2333 20.3663 13.8 20.618C14.3667 20.8697 14.9799 20.9998 15.6 20.9998C16.2201 20.9998 16.8333 20.8697 17.4 20.618" stroke="currentColor" stroke-width="1.5" stroke-linecap="round" stroke-linejoin="round" />
	<path d="M7 13C7 11.6739 7.52678 10.4021 8.46447 9.46447C9.40215 8.52678 10.6739 8 12 8C13.3261 8 14.5979 8.52678 15.5355 9.46447C16.4732 10.4021 17 11.6739 17 13" stroke="currentColor" stroke-width="1.5" stroke-linecap="round" stroke-linejoin="round" />
</svg>
