<svg width="24" height="24" viewBox="0 0 24 24" fill="none" xmlns="http://www.w3.org/2000/svg">
	<path d="M14 15V14C14 13.2044 13.6839 12.4413 13.1213 11.8787C12.5587 11.3161 11.7956 11 11 11H6C5.20435 11 4.44129 11.3161 3.87868 11.8787C3.31607 12.4413 3 13.2044 3 14V15" stroke="currentColor" stroke-width="1.5" stroke-linecap="round" stroke-linejoin="round" />
	<path d="M12 21H5C4.46957 21 3.96086 20.7893 3.58579 20.4142C3.21071 20.0391 3 19.5304 3 19V18H14V19C14 19.5304 13.7893 20.0391 13.4142 20.4142C13.0391 20.7893 12.5304 21 12 21Z" stroke="currentColor" stroke-width="1.5" stroke-linecap="round" stroke-linejoin="round" />
	<path d="M2 15H15" stroke="currentColor" stroke-width="1.5" stroke-linecap="round" stroke-linejoin="round" />
	<path d="M10.6839 11L10.3029 8.132C10.2841 7.99071 10.2957 7.84704 10.337 7.7106C10.3782 7.57417 10.4482 7.44813 10.5421 7.34093C10.636 7.23373 10.7518 7.14786 10.8817 7.08906C11.0115 7.03026 11.1524 6.99989 11.2949 7H19.9999C20.1432 7 20.2847 7.03077 20.415 7.09023C20.5454 7.14969 20.6614 7.23645 20.7552 7.34464C20.8491 7.45283 20.9187 7.57992 20.9591 7.71731C20.9996 7.85471 21.0101 7.9992 20.9899 8.141L19.2759 20.141C19.2418 20.3793 19.1229 20.5973 18.9411 20.7551C18.7593 20.9128 18.5267 20.9998 18.2859 21H16.1529" stroke="currentColor" stroke-width="1.5" stroke-linecap="round" stroke-linejoin="round" />
	<path d="M19.153 3H17.016C16.7762 3.00003 16.5445 3.08618 16.363 3.24275C16.1814 3.39931 16.0622 3.61588 16.027 3.853L15.559 7" stroke="currentColor" stroke-width="1.5" stroke-linecap="round" stroke-linejoin="round" />
</svg>
