<svg width="24" height="24" viewBox="0 0 24 24" fill="none" xmlns="http://www.w3.org/2000/svg">
	<path d="M7.66669 4.66667V2" stroke="currentColor" stroke-width="1.5" stroke-linecap="round" stroke-linejoin="round" />
	<path d="M16.3333 4.66667V2" stroke="currentColor" stroke-width="1.5" stroke-linecap="round" stroke-linejoin="round" />
	<path d="M18.3333 4.66669H5.66667C4.19391 4.66669 3 5.86059 3 7.33335V18.6667C3 20.1394 4.19391 21.3334 5.66667 21.3334H18.3333C19.8061 21.3334 21 20.1394 21 18.6667V7.33335C21 5.86059 19.8061 4.66669 18.3333 4.66669Z" stroke="currentColor" stroke-width="1.5" stroke-linecap="round" stroke-linejoin="round" />
	<path d="M3 9.33331H21" stroke="currentColor" stroke-width="1.5" stroke-linecap="round" stroke-linejoin="round" />
	<path d="M12 12C11.2654 12 10.6667 12.5987 10.6667 13.3333C10.6667 14.068 11.2654 14.6667 12 14.6667C12.7347 14.6667 13.3334 14.068 13.3334 13.3333C13.3334 12.5987 12.7347 12 12 12Z" fill="#110C22" />
	<path d="M16.6666 14.6667C17.4013 14.6667 18 14.068 18 13.3333C18 12.5987 17.4013 12 16.6666 12C15.932 12 15.3333 12.5987 15.3333 13.3333C15.3333 14.068 15.932 14.6667 16.6666 14.6667Z" fill="#110C22" />
	<path d="M12 16C11.2654 16 10.6667 16.5987 10.6667 17.3333C10.6667 18.068 11.2654 18.6667 12 18.6667C12.7347 18.6667 13.3334 18.068 13.3334 17.3333C13.3334 16.5987 12.7347 16 12 16Z" fill="#110C22" />
	<path d="M7.33333 16C6.59867 16 6 16.5987 6 17.3333C6 18.068 6.59867 18.6667 7.33333 18.6667C8.068 18.6667 8.66667 18.068 8.66667 17.3333C8.66667 16.5987 8.068 16 7.33333 16Z" fill="#110C22" />
	<path d="M16.6666 16C15.932 16 15.3333 16.5987 15.3333 17.3333C15.3333 18.068 15.932 18.6667 16.6666 18.6667C17.4013 18.6667 18 18.068 18 17.3333C18 16.5987 17.4013 16 16.6666 16Z" fill="#110C22" />
</svg>
