<svg width="24" height="24" viewBox="0 0 24 24" fill="none" xmlns="http://www.w3.org/2000/svg">
	<path d="M3 22V7C3 4.643 3 3.464 3.732 2.732C4.464 2 5.643 2 8 2H11C13.357 2 14.536 2 15.268 2.732C16 3.464 16 4.643 16 7V22" stroke="currentColor" stroke-width="1.5" />
	<path d="M2 22H17" stroke="currentColor" stroke-width="1.5" stroke-linecap="round" />
	<path d="M3 11H16" stroke="currentColor" stroke-width="1.5" stroke-linecap="round" />
	<path d="M21 8.52698L21.447 8.30498C21.717 8.17198 21.851 8.10498 21.925 7.98598C22 7.86598 22 7.71798 22 7.41998V6.72598C22 6.08298 22 5.76098 21.826 5.61298C21.7707 5.566 21.7059 5.53155 21.636 5.51198C21.414 5.44998 21.143 5.62898 20.602 5.98598C19.907 6.44398 19.56 6.67298 19.338 6.99998C19.2647 7.10852 19.2024 7.22409 19.152 7.34498C19 7.70798 19 8.11998 19 8.94698V10.58C19 10.812 19.19 11 19.425 11C19.5941 11.0004 19.7595 10.9505 19.9001 10.8564C20.0406 10.7623 20.1499 10.6285 20.214 10.472L21 8.52698Z" stroke="currentColor" stroke-width="1.5" stroke-linejoin="round" />
	<path d="M19.478 11C19.678 12.386 20.145 13.97 19.955 15.38C19.784 16.657 18.773 17.688 17.443 17.941C17.133 18 16.755 18 16 18" stroke="currentColor" stroke-width="1.5" stroke-linejoin="round" />
	<path d="M10.25 14L8.30396 15.917C8.06696 16.174 7.94796 16.302 8.02196 16.401C8.09496 16.5 8.30896 16.5 8.73696 16.5H10.262C10.691 16.5 10.905 16.5 10.978 16.599C11.052 16.699 10.933 16.826 10.696 17.083L8.73696 19" stroke="currentColor" stroke-width="1.5" stroke-linecap="round" stroke-linejoin="round" />
</svg>
