<svg width="24" height="24" viewBox="0 0 24 24" fill="none" xmlns="http://www.w3.org/2000/svg">
	<path d="M20.22 6.85999H3.78003V17.99C3.78003 19.22 4.78003 20.22 6.01003 20.22H17.99C19.22 20.22 20.22 19.22 20.22 17.99V6.85999Z" stroke="currentColor" stroke-width="1.5" stroke-linecap="round" stroke-linejoin="round" />
	<path d="M14.81 10.97H9.18998C7.89998 10.97 6.85999 12.01 6.85999 13.3V20.22H17.14V13.3C17.14 12.02 16.1 10.97 14.81 10.97Z" stroke="currentColor" stroke-width="1.5" stroke-linecap="round" stroke-linejoin="round" />
	<path d="M20.22 3.78003H3.78C3.21 3.78003 2.75 4.24003 2.75 4.81003V5.84003C2.75 6.41003 3.21 6.87003 3.78 6.87003H20.22C20.79 6.87003 21.25 6.41003 21.25 5.84003V4.81003C21.25 4.24003 20.79 3.78003 20.22 3.78003Z" stroke="currentColor" stroke-width="1.5" stroke-linecap="round" stroke-linejoin="round" />
	<path d="M13.62 20.1001C14.04 19.7501 14.36 19.2701 14.49 18.7101C14.51 18.6301 14.53 18.5501 14.55 18.4801C14.58 18.2901 14.6 18.1401 14.6 18.0201V17.9701C14.6 17.1901 14.25 16.3101 13.92 15.7401L13.62 15.2201C13.5955 15.1772 13.5607 15.1412 13.5188 15.115C13.477 15.0888 13.4293 15.0734 13.38 15.0701C13.28 15.0701 13.19 15.1201 13.14 15.2101L12.79 15.7601L12.06 14.2201C12.036 14.1717 11.999 14.1311 11.953 14.1028C11.907 14.0745 11.854 14.0597 11.8 14.0601C11.72 14.0601 11.63 14.1001 11.57 14.1701L10.14 15.9701C9.67003 16.5401 9.41003 17.2701 9.41003 18.0101C9.41003 18.1301 9.43003 18.2901 9.47003 18.4901C9.49003 18.5601 9.50003 18.6401 9.52003 18.7201C9.66003 19.2901 9.97003 19.7701 10.39 20.1101" stroke="currentColor" stroke-width="1.5" stroke-linecap="round" stroke-linejoin="round" />
</svg>
