<svg width="24" height="24" viewBox="0 0 24 24" fill="none" xmlns="http://www.w3.org/2000/svg">
	<path d="M2.5 12H7.5" stroke="currentColor" stroke-width="1.5" stroke-linecap="round" stroke-linejoin="round" />
	<path d="M6.5 12V18C6.5 18.2652 6.39464 18.5196 6.20711 18.7071C6.01957 18.8946 5.76522 19 5.5 19H4.5C4.23478 19 3.98043 18.8946 3.79289 18.7071C3.60536 18.5196 3.5 18.2652 3.5 18V12" stroke="currentColor" stroke-width="1.5" stroke-linecap="round" stroke-linejoin="round" />
	<path d="M17.5 12V5.87C17.5 5.39 17.89 5 18.37 5H19.5C19.7652 5 20.0196 5.10536 20.2071 5.29289C20.3946 5.48043 20.5 5.73478 20.5 6V12" stroke="currentColor" stroke-width="1.5" stroke-linecap="round" stroke-linejoin="round" />
	<path d="M21.5 12H16.5" stroke="currentColor" stroke-width="1.5" stroke-linecap="round" stroke-linejoin="round" />
	<path d="M19 12V17.5C19 17.9596 18.9095 18.4148 18.7336 18.8394C18.5577 19.264 18.2999 19.6499 17.9749 19.9749C17.6499 20.2999 17.264 20.5577 16.8394 20.7336C16.4148 20.9095 15.9596 21 15.5 21C15.0404 21 14.5852 20.9095 14.1606 20.7336C13.736 20.5577 13.3501 20.2999 13.0251 19.9749C12.7001 19.6499 12.4423 19.264 12.2664 18.8394C12.0905 18.4148 12 17.9596 12 17.5V6.5C12 5.57174 11.6313 4.6815 10.9749 4.02513C10.3185 3.36875 9.42826 3 8.5 3C7.57174 3 6.6815 3.36875 6.02513 4.02513C5.36875 4.6815 5 5.57174 5 6.5V12" stroke="currentColor" stroke-width="1.5" stroke-linecap="round" stroke-linejoin="round" />
</svg>
