<svg width="24" height="24" viewBox="0 0 24 24" fill="none" xmlns="http://www.w3.org/2000/svg">
	<path d="M12 18.75C12 18.75 15.75 16.6875 15.75 11.1731C15.75 6.86061 13.4484 4.65374 12.4509 3.90186C12.3209 3.80405 12.1627 3.75116 12 3.75116C11.8373 3.75116 11.6791 3.80405 11.5491 3.90186C10.5516 4.65374 8.25 6.85686 8.25 11.1731C8.25 16.6875 12 18.75 12 18.75Z" stroke="currentColor" stroke-width="1.5" stroke-linecap="round" stroke-linejoin="round" />
	<path d="M8.86874 7.57497C7.61999 6.56247 6.42749 6.16779 5.71874 6.01685C5.53229 5.97708 5.33771 6.00802 5.17279 6.10365C5.00786 6.19928 4.88435 6.35278 4.82624 6.53435C4.46249 7.65935 4.00311 10.2525 5.8678 13.4972C7.73249 16.7418 10.8431 18.5034 11.9962 18.7472" stroke="currentColor" stroke-width="1.5" stroke-linecap="round" stroke-linejoin="round" />
	<path d="M15.1312 7.57497C16.38 6.5606 17.5688 6.16872 18.2775 6.01685C18.464 5.97708 18.6585 6.00802 18.8235 6.10365C18.9884 6.19928 19.1119 6.35278 19.17 6.53435C19.5337 7.65935 19.9931 10.2525 18.1284 13.4972C16.2637 16.7418 13.1531 18.5034 12 18.75" stroke="currentColor" stroke-width="1.5" stroke-linecap="round" stroke-linejoin="round" />
	<path d="M12 18.75C13.4409 18.75 15.8222 18.7331 18.5625 17.0963C21.3028 15.4594 22.1897 13.4081 22.4738 12.3581C22.5269 12.1687 22.503 11.9659 22.407 11.7941C22.3111 11.6223 22.1511 11.4954 21.9619 11.4413C21.0153 11.2055 20.028 11.185 19.0725 11.3813" stroke="currentColor" stroke-width="1.5" stroke-linecap="round" stroke-linejoin="round" />
	<path d="M4.9275 11.3813C3.972 11.185 2.98465 11.2055 2.03813 11.4413C1.84894 11.4954 1.68889 11.6223 1.59296 11.7941C1.49704 11.9659 1.47306 12.1687 1.52625 12.3581C1.8075 13.4081 2.69719 15.4585 5.4375 17.0963C8.17781 18.7341 10.5591 18.75 12 18.75" stroke="currentColor" stroke-width="1.5" stroke-linecap="round" stroke-linejoin="round" />
</svg>
