<svg width="24" height="24" viewBox="0 0 24 24" fill="none" xmlns="http://www.w3.org/2000/svg">
	<path d="M21 10.3729V5.98491C21 5.23391 20.444 4.59891 19.7 4.49791L8.92099 3.04791C8.18079 2.94801 7.42777 3.00801 6.71272 3.22384C5.99767 3.43968 5.33721 3.80634 4.7759 4.29909C4.21459 4.79185 3.76547 5.39924 3.45883 6.08031C3.15219 6.76138 2.99516 7.50028 2.99834 8.24719C3.00151 8.9941 3.16482 9.73164 3.47724 10.4101C3.78966 11.0885 4.24393 11.6921 4.80941 12.18C5.37489 12.668 6.03844 13.029 6.7553 13.2388C7.47216 13.4485 8.22566 13.5021 8.96499 13.3959L19.713 11.8569C20.0701 11.8057 20.3968 11.6274 20.6332 11.3549C20.8696 11.0823 20.9998 10.7337 21 10.3729Z" stroke="currentColor" stroke-width="1.5" stroke-linecap="round" stroke-linejoin="round" />
	<path d="M9.842 6.93693C10.0134 7.09732 10.1507 7.29054 10.2459 7.5051C10.3411 7.71966 10.3921 7.95118 10.396 8.18586C10.3998 8.42055 10.3565 8.65362 10.2684 8.8712C10.1803 9.08877 10.0494 9.28641 9.8834 9.45235C9.7174 9.61829 9.5197 9.74914 9.30209 9.83711C9.08448 9.92508 8.8514 9.96837 8.61671 9.96442C8.38202 9.96046 8.15053 9.90933 7.93601 9.81407C7.72148 9.71881 7.52832 9.58137 7.368 9.40993C7.05419 9.07898 6.88197 8.6386 6.88803 8.18256C6.89409 7.72652 7.07795 7.29087 7.40044 6.96837C7.72294 6.64588 8.15859 6.46202 8.61463 6.45597C9.07066 6.44991 9.51105 6.62312 9.842 6.93693Z" stroke="currentColor" stroke-width="1.5" stroke-linecap="round" stroke-linejoin="round" />
	<path d="M17.75 4.30994V12.0299" stroke="currentColor" stroke-width="1.5" stroke-linecap="round" stroke-linejoin="round" />
	<path d="M7.00201 13.299L7.81701 19.006C7.89628 19.56 8.17291 20.0668 8.59604 20.4332C9.01916 20.7995 9.56033 21.0008 10.12 21C10.4531 21.0005 10.7823 20.9293 11.0855 20.7914C11.3886 20.6534 11.6585 20.4519 11.877 20.2005C12.0954 19.949 12.2572 19.6536 12.3514 19.3341C12.4456 19.0147 12.47 18.6787 12.423 18.349L11.66 13.011" stroke="currentColor" stroke-width="1.5" stroke-linecap="round" stroke-linejoin="round" />
</svg>
