<svg width="24" height="24" viewBox="0 0 24 24" fill="none" xmlns="http://www.w3.org/2000/svg">
	<path d="M15.059 8.97903C12.915 7.69203 10.303 8.77803 9.222 10.595C7.014 14.278 11.173 20.87 11.29 20.934" stroke="currentColor" stroke-width="1.5" stroke-linecap="round" stroke-linejoin="round" />
	<path d="M20.05 11.969C22.194 13.256 22.466 16.066 21.375 17.88C19.17 21.554 11.397 20.995 11.29 20.934" stroke="currentColor" stroke-width="1.5" stroke-linecap="round" stroke-linejoin="round" />
	<path d="M16.883 11.59C16.7847 11.0492 16.5708 10.5359 16.2561 10.0853C15.9413 9.63473 15.5329 9.25736 15.059 8.979" stroke="currentColor" stroke-width="1.5" stroke-linecap="round" stroke-linejoin="round" />
	<path d="M16.8829 11.59C17.6599 11.34 18.8229 11.23 20.0499 11.969" stroke="currentColor" stroke-width="1.5" stroke-linecap="round" stroke-linejoin="round" />
	<path d="M14.083 8.563C14.394 7.715 14.504 6.841 14.302 6.005C13.856 4.186 11.947 2.58 9.79598 3.099C9.32197 3.20798 8.87723 3.41846 8.49242 3.71591C8.10761 4.01337 7.79187 4.39074 7.56698 4.822C7.16895 4.53994 6.71411 4.34826 6.23426 4.26034C5.75441 4.17242 5.26116 4.19039 4.78898 4.313C2.63698 4.833 1.66098 7.126 2.10698 8.945C2.76498 11.676 6.59498 13.249 8.60198 13.874" stroke="currentColor" stroke-width="1.5" stroke-linecap="round" stroke-linejoin="round" />
</svg>
