<svg width="24" height="24" viewBox="0 0 24 24" fill="none" xmlns="http://www.w3.org/2000/svg">
	<path d="M9.63398 17.898L11.439 17.684C11.8851 17.6312 12.3004 17.4297 12.618 17.112L19.839 9.89104C20.5826 9.14737 21.0004 8.13874 21.0004 7.08704C21.0004 6.03533 20.5826 5.0267 19.839 4.28304C19.0953 3.53937 18.0867 3.12158 17.035 3.12158C15.9833 3.12158 14.9746 3.53937 14.231 4.28304L7.00998 11.504C6.69232 11.8216 6.49083 12.237 6.43798 12.683L6.22398 14.488C6.17112 14.9341 5.96964 15.3494 5.65198 15.667L3.71498 17.604C3.35327 17.9779 3.15298 18.479 3.15729 18.9992C3.16161 19.5194 3.37018 20.0171 3.73803 20.385C4.10589 20.7528 4.60357 20.9614 5.12379 20.9657C5.644 20.97 6.14507 20.7697 6.51898 20.408L8.45598 18.471C8.77198 18.152 9.18798 17.951 9.63398 17.898Z" stroke="currentColor" stroke-width="1.5" stroke-linecap="round" stroke-linejoin="round" />
	<path d="M17.22 10.23L18.36 11.37" stroke="currentColor" stroke-width="1.5" stroke-linecap="round" stroke-linejoin="round" />
	<path d="M15.07 12.3201L16.24 13.4901" stroke="currentColor" stroke-width="1.5" stroke-linecap="round" stroke-linejoin="round" />
	<path d="M12.95 14.4401L14.12 15.6101" stroke="currentColor" stroke-width="1.5" stroke-linecap="round" stroke-linejoin="round" />
	<path d="M16.33 7.79004L9.53998 14.58" stroke="currentColor" stroke-width="1.5" stroke-linecap="round" stroke-linejoin="round" />
	<path d="M4.81 16.5L7.61 19.31" stroke="currentColor" stroke-width="1.5" stroke-linecap="round" stroke-linejoin="round" />
</svg>
