<svg width="24" height="24" viewBox="0 0 24 24" fill="none" xmlns="http://www.w3.org/2000/svg">
	<path d="M6.66665 8.33332L14.0253 9.17465C16.712 9.48132 19.0626 11.1253 20.272 13.5453L21.6666 16.3333H2.33331C2.33331 16.3333 3.11598 8.89332 3.38265 6.36132C3.53865 4.87999 4.87731 3.81465 6.35598 3.99332C8.50131 4.25332 10.6466 4.51332 12.792 4.77332" stroke="currentColor" stroke-width="1.5" stroke-linecap="round" stroke-linejoin="round" />
	<path d="M2.33331 19.6666H21.6666" stroke="currentColor" stroke-width="1.5" stroke-linecap="round" stroke-linejoin="round" />
	<path d="M9 13.3334C9.55228 13.3334 10 12.8857 10 12.3334C10 11.7811 9.55228 11.3334 9 11.3334C8.44772 11.3334 8 11.7811 8 12.3334C8 12.8857 8.44772 13.3334 9 13.3334Z" fill="#110C22" />
	<path d="M13 13.3334C13.5523 13.3334 14 12.8857 14 12.3334C14 11.7811 13.5523 11.3334 13 11.3334C12.4477 11.3334 12 11.7811 12 12.3334C12 12.8857 12.4477 13.3334 13 13.3334Z" fill="#110C22" />
</svg>
