<svg width="24" height="24" viewBox="0 0 24 24" fill="none" xmlns="http://www.w3.org/2000/svg">
	<path d="M22 17.5H2" stroke="currentColor" stroke-width="1.5" stroke-linecap="round" stroke-linejoin="round" />
	<path d="M22 21V16C22 14.114 22 13.172 21.414 12.586C20.828 12 19.886 12 18 12H6C4.114 12 3.172 12 2.586 12.586C2 13.172 2 14.114 2 16V21" stroke="currentColor" stroke-width="1.5" stroke-linecap="round" stroke-linejoin="round" />
	<path d="M16 12V10.618C16 10.11 15.909 9.941 15.44 9.741C14.463 9.324 13.278 9 12 9C10.722 9 9.537 9.324 8.56 9.74C8.092 9.94 8 10.11 8 10.618V12" stroke="currentColor" stroke-width="1.5" stroke-linecap="round" />
	<path d="M20 12V7.36002C20 6.66902 20 6.32302 19.83 5.99702C19.658 5.67002 19.415 5.50102 18.928 5.16302C16.8943 3.75039 14.4762 2.99545 12 3.00002C9.423 3.00002 7.034 3.80002 5.072 5.16302C4.585 5.50102 4.342 5.67002 4.171 5.99702C4 6.32302 4 6.66902 4 7.36002V12" stroke="currentColor" stroke-width="1.5" stroke-linecap="round" />
</svg>
