<svg width="24" height="24" viewBox="0 0 24 24" fill="none" xmlns="http://www.w3.org/2000/svg">
	<path fill-rule="evenodd" clip-rule="evenodd" d="M14.5 10.5C14.5 9.83696 14.2366 9.20107 13.7678 8.73223C13.2989 8.26339 12.663 8 12 8C11.337 8 10.7011 8.26339 10.2322 8.73223C9.76339 9.20107 9.5 9.83696 9.5 10.5C9.5 11.163 9.76339 11.7989 10.2322 12.2678C10.7011 12.7366 11.337 13 12 13C12.663 13 13.2989 12.7366 13.7678 12.2678C14.2366 11.7989 14.5 11.163 14.5 10.5Z" stroke="currentColor" stroke-width="1.5" stroke-linecap="round" stroke-linejoin="round" />
	<path fill-rule="evenodd" clip-rule="evenodd" d="M12 21C10.8 21 4.5 15.898 4.5 10.563C4.5 6.387 7.857 3 12 3C16.142 3 19.5 6.387 19.5 10.563C19.5 15.898 13.198 21 12 21Z" stroke="currentColor" stroke-width="1.5" stroke-linecap="round" stroke-linejoin="round" />
</svg>
