<svg width="24" height="24" viewBox="0 0 24 24" fill="none" xmlns="http://www.w3.org/2000/svg">
	<path d="M8.33334 3.72266V17.7227" stroke="currentColor" stroke-width="1.5" stroke-linecap="round" stroke-linejoin="round" />
	<path d="M15.6667 6.27734V20.2773" stroke="currentColor" stroke-width="1.5" stroke-linecap="round" stroke-linejoin="round" />
	<path d="M3.37734 4.76804L7.95334 3.75071C8.20134 3.69604 8.46001 3.71204 8.69868 3.79871L15.3013 6.20004C15.54 6.28671 15.7987 6.30404 16.0467 6.24804L20.044 5.36004C20.8773 5.17471 21.6667 5.80804 21.6667 6.66138V17.9307C21.6667 18.556 21.232 19.0974 20.6227 19.232L16.0467 20.2494C15.7987 20.304 15.54 20.288 15.3013 20.2014L8.69868 17.8C8.46001 17.7134 8.20134 17.696 7.95334 17.752L3.95601 18.64C3.12268 18.8254 2.33334 18.192 2.33334 17.3387V6.06938C2.33334 5.44404 2.76801 4.90271 3.37734 4.76804Z" stroke="currentColor" stroke-width="1.5" stroke-linecap="round" stroke-linejoin="round" />
</svg>
