<svg width="24" height="24" viewBox="0 0 24 24" fill="none" xmlns="http://www.w3.org/2000/svg">
	<path d="M21 16.0141L16.707 11.7211C16.6142 11.6281 16.504 11.5544 16.3827 11.5041C16.2614 11.4538 16.1313 11.4279 16 11.4279C15.8687 11.4279 15.7386 11.4538 15.6173 11.5041C15.496 11.5544 15.3858 11.6281 15.293 11.7211L11 16.0141" stroke="currentColor" stroke-width="1.5" stroke-linecap="round" stroke-linejoin="round" />
	<path d="M18 21.014H6C5.20435 21.014 4.44129 20.698 3.87868 20.1354C3.31607 19.5727 3 18.8097 3 18.014V6.01404C3 5.21839 3.31607 4.45533 3.87868 3.89272C4.44129 3.33011 5.20435 3.01404 6 3.01404H18C18.7956 3.01404 19.5587 3.33011 20.1213 3.89272C20.6839 4.45533 21 5.21839 21 6.01404V18.014C21 18.8097 20.6839 19.5727 20.1213 20.1354C19.5587 20.698 18.7956 21.014 18 21.014Z" stroke="currentColor" stroke-width="1.5" stroke-linecap="round" stroke-linejoin="round" />
	<path d="M16 21.0141L9.70701 14.7211C9.61423 14.6281 9.50402 14.5544 9.38271 14.5041C9.26139 14.4538 9.13135 14.4279 9.00001 14.4279C8.86868 14.4279 8.73864 14.4538 8.61732 14.5041C8.49601 14.5544 8.3858 14.6281 8.29301 14.7211L3.44601 19.5681" stroke="currentColor" stroke-width="1.5" stroke-linecap="round" stroke-linejoin="round" />
	<path d="M9.26501 8.74908C9.30186 8.78341 9.33141 8.82481 9.35191 8.87081C9.3724 8.91681 9.38342 8.96647 9.38431 9.01682C9.3852 9.06717 9.37594 9.11719 9.35708 9.16388C9.33822 9.21058 9.31014 9.25299 9.27453 9.2886C9.23892 9.32421 9.19651 9.35228 9.14981 9.37114C9.10312 9.39001 9.0531 9.39927 9.00275 9.39838C8.9524 9.39749 8.90274 9.38647 8.85675 9.36597C8.81075 9.34548 8.76935 9.31593 8.73501 9.27908C8.66877 9.208 8.63271 9.11397 8.63443 9.01682C8.63614 8.91967 8.6755 8.82698 8.7442 8.75827C8.81291 8.68957 8.9056 8.65021 9.00275 8.6485C9.0999 8.64678 9.19393 8.68284 9.26501 8.74908Z" fill="#110C22" stroke="currentColor" stroke-width="1.5" stroke-linecap="round" stroke-linejoin="round" />
</svg>
