<svg width="24" height="24" viewBox="0 0 24 24" fill="none" xmlns="http://www.w3.org/2000/svg">
	<path d="M8.87622 2.54534C10.0912 2.10313 11.4321 2.16168 12.6039 2.70812C13.1841 2.97868 13.7054 3.36088 14.1379 3.8329C14.5704 4.30491 14.9057 4.85749 15.1247 5.45909C15.3436 6.06068 15.4419 6.69952 15.414 7.33911C15.3861 7.97871 15.2324 8.60654 14.9619 9.18676C14.6913 9.76698 14.3091 10.2882 13.8371 10.7207C13.3651 11.1533 12.8125 11.4886 12.2109 11.7075L8.87622 2.54534Z" stroke="currentColor" stroke-width="1.5" stroke-linecap="round" stroke-linejoin="round" />
	<path d="M2.54521 13.6237C2.10301 12.4087 2.16156 11.0679 2.708 9.89605C3.25443 8.72424 4.24398 7.8175 5.45896 7.37529C6.67395 6.93308 8.01483 6.99164 9.18664 7.53807C10.3585 8.08451 11.2652 9.07406 11.7074 10.289L2.54521 13.6237Z" stroke="currentColor" stroke-width="1.5" stroke-linecap="round" stroke-linejoin="round" />
	<path d="M13.6237 19.9547C12.4087 20.3969 11.0679 20.3383 9.89605 19.7919C8.72424 19.2455 7.8175 18.2559 7.37529 17.0409C6.93308 15.8259 6.99164 14.4851 7.53807 13.3132C8.08451 12.1414 9.07406 11.2347 10.289 10.7925L13.6237 19.9547Z" stroke="currentColor" stroke-width="1.5" stroke-linecap="round" stroke-linejoin="round" />
	<path d="M19.9547 8.87628C20.1736 9.47788 20.2719 10.1167 20.244 10.7563C20.2161 11.3959 20.0625 12.0237 19.7919 12.604C19.5213 13.1842 19.1391 13.7054 18.6671 14.1379C18.1951 14.5705 17.6425 14.9058 17.0409 15.1247C16.4393 15.3437 15.8005 15.442 15.1609 15.4141C14.5213 15.3861 13.8935 15.2325 13.3132 14.9619C12.733 14.6914 12.2118 14.3092 11.7793 13.8372C11.3467 13.3651 11.0114 12.8126 10.7925 12.211L19.9547 8.87628Z" stroke="currentColor" stroke-width="1.5" stroke-linecap="round" stroke-linejoin="round" />
	<path d="M15.42 15.42L21 21" stroke="currentColor" stroke-width="1.5" stroke-linecap="round" stroke-linejoin="round" />
</svg>
