<svg width="24" height="24" viewBox="0 0 24 24" fill="none" xmlns="http://www.w3.org/2000/svg">
	<path d="M14.081 7.11597L17.393 3.80397C17.7647 3.43227 18.2688 3.22345 18.7945 3.22345C19.3202 3.22345 19.8243 3.43227 20.196 3.80397C20.5677 4.17567 20.7765 4.67981 20.7765 5.20547C20.7765 5.73113 20.5677 6.23527 20.196 6.60697L16.884 9.91897L18.676 18.836C18.742 19.164 18.639 19.503 18.403 19.74L17.743 20.4C17.6255 20.5175 17.4804 20.604 17.3211 20.6514C17.1618 20.6988 16.9931 20.7058 16.8304 20.6716C16.6677 20.6375 16.516 20.5633 16.3892 20.4558C16.2624 20.3483 16.1644 20.2109 16.104 20.056L13.48 13.323L10.074 16.729L10.256 18.899C10.2683 19.0439 10.2487 19.1898 10.1988 19.3264C10.1489 19.463 10.0698 19.5871 9.967 19.69L8.881 20.776L6.76 17.24L3.224 15.119L4.31 14.033C4.41282 13.9301 4.53689 13.8509 4.67352 13.801C4.81016 13.751 4.95606 13.7316 5.101 13.744L7.271 13.926L10.677 10.52L3.945 7.89597C3.79001 7.83573 3.65248 7.73778 3.54488 7.611C3.43727 7.48422 3.36298 7.33261 3.32872 7.16988C3.29447 7.00716 3.30134 6.83846 3.34871 6.67906C3.39607 6.51966 3.48244 6.37458 3.6 6.25697L4.26 5.59697C4.37648 5.48045 4.51998 5.39454 4.67771 5.34691C4.83543 5.29928 5.00249 5.2914 5.164 5.32397L14.081 7.11597Z" stroke="currentColor" stroke-width="1.5" stroke-linecap="round" stroke-linejoin="round" />
</svg>
