<svg width="24" height="24" viewBox="0 0 24 24" fill="none" xmlns="http://www.w3.org/2000/svg">
	<path d="M3 16.618C3.5667 16.3663 4.1799 16.2362 4.8 16.2362C5.4201 16.2362 6.0333 16.3663 6.6 16.618C7.1667 16.8697 7.7799 16.9998 8.4 16.9998C9.0201 16.9998 9.6333 16.8697 10.2 16.618C10.7667 16.3663 11.3799 16.2362 12 16.2362C12.6201 16.2362 13.2333 16.3663 13.8 16.618C14.3667 16.8697 14.9799 16.9998 15.6 16.9998C16.2201 16.9998 16.8333 16.8697 17.4 16.618C17.9667 16.3663 18.5799 16.2362 19.2 16.2362C19.8201 16.2362 20.4333 16.3663 21 16.618" stroke="currentColor" stroke-width="1.5" stroke-linecap="round" stroke-linejoin="round" />
	<path d="M8 8H16" stroke="currentColor" stroke-width="1.5" stroke-linecap="round" stroke-linejoin="round" />
	<path d="M8 12H16" stroke="currentColor" stroke-width="1.5" stroke-linecap="round" stroke-linejoin="round" />
	<path d="M16 14V4.5C16 4.10218 16.158 3.72064 16.4393 3.43934C16.7206 3.15804 17.1022 3 17.5 3C17.8978 3 18.2794 3.15804 18.5607 3.43934C18.842 3.72064 19 4.10218 19 4.5" stroke="currentColor" stroke-width="1.5" stroke-linecap="round" stroke-linejoin="round" />
	<path d="M8 14V4.5C8 4.10218 8.15804 3.72064 8.43934 3.43934C8.72064 3.15804 9.10218 3 9.5 3C9.89782 3 10.2794 3.15804 10.5607 3.43934C10.842 3.72064 11 4.10218 11 4.5" stroke="currentColor" stroke-width="1.5" stroke-linecap="round" stroke-linejoin="round" />
	<path d="M3 20.618C3.5667 20.3663 4.1799 20.2362 4.8 20.2362C5.4201 20.2362 6.0333 20.3663 6.6 20.618C7.1667 20.8697 7.7799 20.9998 8.4 20.9998C9.0201 20.9998 9.6333 20.8697 10.2 20.618C10.7667 20.3663 11.3799 20.2362 12 20.2362C12.6201 20.2362 13.2333 20.3663 13.8 20.618C14.3667 20.8697 14.9799 20.9998 15.6 20.9998C16.2201 20.9998 16.8333 20.8697 17.4 20.618C17.9667 20.3663 18.5799 20.2362 19.2 20.2362C19.8201 20.2362 20.4333 20.3663 21 20.618" stroke="currentColor" stroke-width="1.5" stroke-linecap="round" stroke-linejoin="round" />
</svg>
