<svg width="24" height="24" viewBox="0 0 24 24" fill="none" xmlns="http://www.w3.org/2000/svg">
	<path d="M8 21C8.53221 21 9.04265 20.7887 9.41917 20.4126C9.79568 20.0364 10.0075 19.5262 10.008 18.994L10.012 14.95C10.976 14.528 11.847 13.822 12.423 12.716C13.337 10.962 13.162 8.75799 11.919 7.21999C11.4471 6.63204 10.8489 6.15786 10.1688 5.8326C9.48868 5.50734 8.74407 5.33935 7.99017 5.34108C7.23628 5.34281 6.49244 5.51421 5.81382 5.84259C5.13519 6.17096 4.53919 6.64789 4.07 7.23799C2.833 8.78099 2.664 10.986 3.587 12.735C4.10853 13.7315 4.96008 14.5159 5.996 14.954L5.992 18.989C5.99174 19.2529 6.04348 19.5143 6.14426 19.7582C6.24504 20.0021 6.39289 20.2238 6.57936 20.4105C6.76584 20.5973 6.98728 20.7454 7.23104 20.8466C7.47479 20.9477 7.73609 20.9999 8 21Z" stroke="currentColor" stroke-width="1.5" stroke-linecap="round" stroke-linejoin="round" />
	<path d="M8.273 10.346C8.273 10.268 8.24202 10.1932 8.18689 10.1381C8.13175 10.083 8.05697 10.052 7.979 10.052C7.90102 10.052 7.82624 10.083 7.77111 10.1381C7.71597 10.1932 7.685 10.268 7.685 10.346C7.685 10.424 7.71597 10.4988 7.77111 10.5539C7.82624 10.609 7.90102 10.64 7.979 10.64C8.05697 10.64 8.13175 10.609 8.18689 10.5539C8.24202 10.4988 8.273 10.424 8.273 10.346Z" stroke="currentColor" stroke-width="1.5" stroke-linecap="round" stroke-linejoin="round" />
	<path d="M13.263 5.63199C13.263 5.28641 13.1949 4.94423 13.0627 4.62496C12.9304 4.30569 12.7366 4.01559 12.4923 3.77124C12.2479 3.52688 11.9578 3.33304 11.6385 3.2008C11.3193 3.06855 10.9771 3.00049 10.6315 3.00049C10.2859 3.00049 9.94374 3.06855 9.62447 3.2008C9.3052 3.33304 9.01511 3.52688 8.77075 3.77124C8.52639 4.01559 8.33256 4.30569 8.20031 4.62496C8.06807 4.94423 8 5.28641 8 5.63199V10.052" stroke="currentColor" stroke-width="1.5" stroke-linecap="round" stroke-linejoin="round" />
	<path d="M11.398 6.66594L11.848 6.21594C12.2231 5.841 12.7317 5.63037 13.262 5.63037C13.7923 5.63037 14.301 5.841 14.676 6.21594L20.413 11.9529C20.788 12.328 20.9986 12.8366 20.9986 13.3669C20.9986 13.8973 20.788 14.4059 20.413 14.7809L17.766 17.4279C17.391 17.8029 16.8823 18.0135 16.352 18.0135C15.8217 18.0135 15.3131 17.8029 14.938 17.4279L11.485 13.9749" stroke="currentColor" stroke-width="1.5" stroke-linecap="round" stroke-linejoin="round" />
</svg>
