<svg width="24" height="24" viewBox="0 0 24 24" fill="none" xmlns="http://www.w3.org/2000/svg">
	<path d="M20.3334 14.3334H3.66671C2.93033 14.3334 2.33337 14.9303 2.33337 15.6667V17.6667C2.33337 18.4031 2.93033 19 3.66671 19H20.3334C21.0698 19 21.6667 18.4031 21.6667 17.6667V15.6667C21.6667 14.9303 21.0698 14.3334 20.3334 14.3334Z" stroke="currentColor" stroke-width="1.5" stroke-linecap="round" stroke-linejoin="round" />
	<path d="M16.3334 14.3334V19" stroke="currentColor" stroke-width="1.5" stroke-linecap="round" stroke-linejoin="round" />
	<path d="M9.66675 3V3.33333C9.66675 5.35867 11.3081 7 13.3334 7C15.3587 7 17.0001 8.64133 17.0001 10.6667V11" stroke="currentColor" stroke-width="1.5" stroke-linecap="round" stroke-linejoin="round" />
	<path d="M13.6667 3C17.7174 3 21.0001 6.28267 21.0001 10.3333V11" stroke="currentColor" stroke-width="1.5" stroke-linecap="round" stroke-linejoin="round" />
</svg>
