<svg width="24" height="24" viewBox="0 0 24 24" fill="none" xmlns="http://www.w3.org/2000/svg">
	<path d="M19.632 16.833H4.36801C3.83758 16.833 3.32887 16.6223 2.9538 16.2472C2.57873 15.8722 2.36801 15.3634 2.36801 14.833V5.06201C2.36801 4.53158 2.57873 4.02287 2.9538 3.6478C3.32887 3.27273 3.83758 3.06201 4.36801 3.06201H19.631C20.1614 3.06201 20.6702 3.27273 21.0452 3.6478C21.4203 4.02287 21.631 4.53158 21.631 5.06201V14.834C21.6311 15.0966 21.5795 15.3566 21.4791 15.5992C21.3787 15.8417 21.2315 16.0622 21.0458 16.2478C20.8602 16.4335 20.6397 16.5807 20.3972 16.6811C20.1546 16.7815 19.8946 16.8331 19.632 16.833Z" stroke="currentColor" stroke-width="1.5" stroke-linecap="round" stroke-linejoin="round" />
	<path d="M4.98499 21C8.85899 19.667 15.141 19.667 19.016 21" stroke="currentColor" stroke-width="1.5" stroke-linecap="round" stroke-linejoin="round" />
</svg>
