<svg width="24" height="24" viewBox="0 0 24 24" fill="none" xmlns="http://www.w3.org/2000/svg">
	<path d="M8.66663 9.5C10.3235 9.5 11.6666 8.15685 11.6666 6.5C11.6666 4.84315 10.3235 3.5 8.66663 3.5C7.00977 3.5 5.66663 4.84315 5.66663 6.5C5.66663 8.15685 7.00977 9.5 8.66663 9.5Z" stroke="currentColor" stroke-width="1.5" stroke-linecap="round" stroke-linejoin="round" />
	<path d="M14.0533 19.5893C15.1693 19.2013 15.7413 17.9133 15.208 16.8586C14 14.4706 11.5266 12.832 8.66665 12.832C5.80665 12.832 3.33331 14.4693 2.12531 16.8586C1.59198 17.9133 2.16265 19.2013 3.27998 19.5893C4.65465 20.0666 6.49065 20.5 8.66665 20.5C10.8426 20.5 12.6786 20.0666 14.0533 19.5893Z" stroke="currentColor" stroke-width="1.5" stroke-linecap="round" stroke-linejoin="round" />
	<path d="M18.0627 20.2707C19.0733 20.1 19.9667 19.8507 20.72 19.5894C21.836 19.2014 22.408 17.9134 21.8747 16.8587C20.8347 14.8027 18.8573 13.3027 16.5013 12.9254" stroke="currentColor" stroke-width="1.5" stroke-linecap="round" stroke-linejoin="round" />
	<path d="M14.3107 9.31333C14.6307 9.42933 14.9733 9.5 15.3333 9.5C16.9907 9.5 18.3333 8.15733 18.3333 6.5C18.3333 4.84267 16.9907 3.5 15.3333 3.5C14.9733 3.5 14.6307 3.56933 14.3107 3.68667" stroke="currentColor" stroke-width="1.5" stroke-linecap="round" stroke-linejoin="round" />
</svg>
