<svg width="24" height="24" viewBox="0 0 24 24" fill="none" xmlns="http://www.w3.org/2000/svg">
	<path d="M5 21H18.779C19.3094 21 19.8181 20.7893 20.1932 20.4142C20.5683 20.0391 20.779 19.5304 20.779 19V5C20.779 4.46957 20.5683 3.96086 20.1932 3.58579C19.8181 3.21071 19.3094 3 18.779 3H5C4.46957 3 3.96086 3.21071 3.58579 3.58579C3.21071 3.96086 3 4.46957 3 5V19C3 19.5304 3.21071 20.0391 3.58579 20.4142C3.96086 20.7893 4.46957 21 5 21Z" stroke="currentColor" stroke-width="1.5" stroke-linecap="round" stroke-linejoin="round" />
	<path d="M20.78 8H3" stroke="currentColor" stroke-width="1.5" stroke-linecap="round" stroke-linejoin="round" />
	<path d="M8.53599 16.5C8.29454 16.0818 8.22054 15.5877 8.32891 15.1171C8.43727 14.6465 8.71995 14.2345 9.11999 13.964L9.12099 13.963C9.44595 13.7429 9.83089 13.6283 10.2233 13.6349C10.6158 13.6415 10.9967 13.769 11.314 14L12.686 14.999C13.336 15.472 14.213 15.487 14.879 15.036L14.88 15.035C15.2798 14.7644 15.5624 14.3524 15.6707 13.8819C15.7791 13.4114 15.7052 12.9173 15.464 12.499" stroke="currentColor" stroke-width="1.5" stroke-linecap="round" stroke-linejoin="round" />
	<path d="M14.828 11.672C15.21 12.041 15.5147 12.4824 15.7244 12.9704C15.934 13.4584 16.0444 13.9833 16.049 14.5144C16.0536 15.0456 15.9524 15.5723 15.7513 16.0639C15.5501 16.5554 15.2531 17.0021 14.8776 17.3776C14.502 17.7532 14.0554 18.0502 13.5638 18.2513C13.0722 18.4525 12.5455 18.5537 12.0144 18.549C11.4833 18.5444 10.9584 18.4341 10.4704 18.2244C9.98235 18.0148 9.54097 17.7101 9.17198 17.328C8.44335 16.5736 8.04017 15.5632 8.04928 14.5144C8.0584 13.4656 8.47907 12.4624 9.22071 11.7208C9.96234 10.9791 10.9656 10.5585 12.0144 10.5493C13.0632 10.5402 14.0736 10.9434 14.828 11.672Z" stroke="currentColor" stroke-width="1.5" stroke-linecap="round" stroke-linejoin="round" />
	<path d="M16 5.5H18" stroke="currentColor" stroke-width="1.5" stroke-linecap="round" stroke-linejoin="round" />
</svg>
