<svg width="24" height="24" viewBox="0 0 24 24" fill="none" xmlns="http://www.w3.org/2000/svg">
	<path d="M21.6334 20C19.8427 20 18.144 19.3467 16.8294 18.176C16.784 18.216 16.7387 18.2547 16.6934 18.2934C13.892 20.6414 9.8307 20.5227 7.16803 18.1747C5.8467 19.3454 4.14137 20 2.34803 20H2.32937C1.77737 20 1.3307 19.5507 1.33203 18.9974C1.33203 18.4454 1.78003 18 2.33203 18H2.34803C3.91737 18 5.39203 17.3094 6.39737 16.104C6.58803 15.8774 6.86803 15.7454 7.16403 15.744C7.4587 15.6894 7.74137 15.8747 7.93203 16.1014C9.81203 18.344 13.1667 18.6387 15.4067 16.76C15.644 16.5614 15.8667 16.3387 16.0654 16.1014C16.256 15.8747 16.536 15.744 16.832 15.744H16.8347C17.1307 15.744 17.412 15.8774 17.6014 16.1054C18.6 17.3094 20.068 17.9987 21.6307 17.9987H21.664C22.2147 17.9987 22.6614 18.4427 22.664 18.9934C22.6667 19.5454 22.2214 19.996 21.6694 19.9987H21.6307L21.6334 20Z" fill="#110C22" />
	<path d="M21.6334 14.1281C19.8427 14.1281 18.1441 13.4747 16.8294 12.3041C16.7841 12.3441 16.7387 12.3827 16.6921 12.4214C13.8907 14.7694 9.82939 14.6521 7.16805 12.3027C5.84805 13.4734 4.14272 14.1281 2.35072 14.1281C1.74805 14.1321 1.33072 13.6841 1.33339 13.1254C1.33339 12.5734 1.78272 12.1281 2.33339 12.1281C2.34005 12.1267 2.34539 12.1281 2.35072 12.1281C3.91872 12.1281 5.39339 11.4374 6.39872 10.2321C6.58939 10.0054 6.86939 9.8734 7.16539 9.87207C7.46139 9.87207 7.74139 10.0027 7.93205 10.2294C9.81205 12.4721 13.1654 12.7654 15.4067 10.8881C15.6441 10.6894 15.8654 10.4681 16.0654 10.2294C16.2561 10.0027 16.5361 9.87207 16.8321 9.87207H16.8347C17.1321 9.87207 17.4134 10.0054 17.6014 10.2334C18.6054 11.4441 20.1147 12.0787 21.6601 12.1267H21.6654C22.2161 12.1267 22.6627 12.5707 22.6654 13.1214C22.6681 13.6734 22.2227 14.1241 21.6707 14.1267H21.6321L21.6334 14.1281Z" fill="#110C22" />
	<path d="M21.6334 8.25605C19.8454 8.25605 18.148 7.60406 16.8334 6.43472C15.5094 7.61206 13.772 8.23872 11.9947 8.25605H11.9787C10.1907 8.25605 8.48671 7.60139 7.16671 6.43205C5.84671 7.60139 4.14138 8.25605 2.34938 8.25605H2.33071C1.77871 8.25605 1.33204 7.80672 1.33338 7.25339C1.33338 6.70139 1.78138 6.25605 2.33338 6.25605C2.33604 6.25605 2.34271 6.25605 2.34938 6.25605C3.91871 6.25605 5.39338 5.56539 6.39871 4.36005C6.77871 3.90539 7.55471 3.90405 7.93471 4.36005C8.94004 5.56539 10.416 6.25605 11.9867 6.25605H12.0254C13.596 6.25605 15.064 5.56672 16.0627 4.36272C16.4414 3.90405 17.2227 3.90405 17.6014 4.36272C18.6014 5.56672 20.0694 6.25605 21.632 6.25605C21.644 6.25605 21.6587 6.25605 21.6654 6.25605C22.216 6.25605 22.6627 6.70006 22.6654 7.25072C22.668 7.80272 22.2227 8.25339 21.6707 8.25605H21.6334Z" fill="#110C22" />
</svg>
