<svg width="24" height="24" viewBox="0 0 24 24" fill="none" xmlns="http://www.w3.org/2000/svg">
	<path d="M4.39301 12.496C6.22701 10.203 8.95401 8.74304 12.004 8.74304C15.054 8.74304 17.781 10.202 19.615 12.496" stroke="currentColor" stroke-width="1.5" stroke-linecap="round" stroke-linejoin="round" />
	<path d="M7.53799 15.845C8.55699 14.392 10.17 13.438 12.004 13.438C13.838 13.438 15.451 14.392 16.47 15.845" stroke="currentColor" stroke-width="1.5" stroke-linecap="round" stroke-linejoin="round" />
	<path d="M13.475 19.035L21.463 10.528C21.6453 10.3328 21.7868 10.1032 21.8793 9.85262C21.9718 9.60208 22.0135 9.3356 22.0018 9.06877C21.9902 8.80194 21.9255 8.54011 21.8115 8.29856C21.6975 8.05702 21.5366 7.84062 21.338 7.662C18.821 5.382 15.567 4 12.004 4C8.44099 4 5.18699 5.382 2.66999 7.662C2.47143 7.84062 2.31045 8.05702 2.19647 8.29856C2.08249 8.54011 2.01779 8.80194 2.00615 9.06877C1.99451 9.3356 2.03617 9.60208 2.12869 9.85262C2.22121 10.1032 2.36273 10.3328 2.54499 10.528L10.533 19.036C10.7204 19.2393 10.9478 19.4015 11.2011 19.5124C11.4543 19.6233 11.7278 19.6805 12.0042 19.6805C12.2807 19.6804 12.5541 19.6229 12.8072 19.5119C13.0604 19.4008 13.2878 19.2384 13.475 19.035Z" stroke="currentColor" stroke-width="1.5" stroke-linecap="round" stroke-linejoin="round" />
</svg>
