<svg width="24" height="24" viewBox="0 0 24 24" fill="none" xmlns="http://www.w3.org/2000/svg">
	<path d="M3 13.6667H21" stroke="currentColor" stroke-width="1.5" stroke-linecap="round" stroke-linejoin="round" />
	<path d="M6.66665 13.6667L5.33331 21.0001" stroke="currentColor" stroke-width="1.5" stroke-linecap="round" stroke-linejoin="round" />
	<path d="M17.3333 13.6667L18.6666 21.0001" stroke="currentColor" stroke-width="1.5" stroke-linecap="round" stroke-linejoin="round" />
	<path d="M15 2.33337H9.00002C8.26364 2.33337 7.66669 2.93033 7.66669 3.66671V7.00004C7.66669 7.73642 8.26364 8.33337 9.00002 8.33337H15C15.7364 8.33337 16.3334 7.73642 16.3334 7.00004V3.66671C16.3334 2.93033 15.7364 2.33337 15 2.33337Z" stroke="currentColor" stroke-width="1.5" stroke-linecap="round" stroke-linejoin="round" />
	<path d="M12 8.33337V10.3334" stroke="currentColor" stroke-width="1.5" stroke-linecap="round" stroke-linejoin="round" />
	<path d="M17.6667 9.66675C16.7467 9.66675 16 10.4134 16 11.3334H19.3333C19.3333 10.4134 18.5867 9.66675 17.6667 9.66675Z" fill="#110C22" />
</svg>
