<svg width="606" height="120" viewBox="0 0 606 120" fill="none" xmlns="http://www.w3.org/2000/svg">
	<g clip-path="url(#clip0_18_49)">
		<path d="M122.984 18.1755C122.688 23.9488 120.655 30.3554 117.43 36.4183C111.741 47.1094 104.423 56.5677 95.8129 65.0424C95.1127 65.7295 94.4328 66.4301 93.7663 67.1442C91.888 69.145 91.8476 70.4789 93.7663 72.4864C96.2033 75.0463 98.7077 77.5389 101.185 80.0584C105.797 84.7471 110.348 89.5032 115.04 94.111C120.278 99.2578 119.739 108.406 116.387 112.051C112.643 116.113 108.052 118.545 102.458 117.103C100.054 116.483 97.5834 115.015 95.7994 113.263C87.1216 104.728 78.6861 95.9434 70.1093 87.2935C67.3962 84.5585 64.5687 81.9244 61.694 79.3578C57.9038 75.9827 54.1405 72.6076 52.2622 67.7034C48.822 58.7301 54.8945 49.8916 64.5081 49.7502C68.3252 49.6963 71.8193 50.5182 74.9161 52.7749C76.2491 53.7517 77.2858 53.4149 78.3495 52.3505C85.0144 45.688 90.9522 38.3989 96.6477 30.9145C97.6036 29.6615 98.1624 28.0379 98.6202 26.502C99.1318 24.7639 98.3038 23.6052 96.513 23.1067C94.352 22.5004 92.4468 23.1471 90.7166 24.4338C85.1288 28.5769 79.5815 32.7603 73.9534 36.8428C72.6608 37.7791 71.2066 38.601 69.6986 39.1197C67.0798 40.0157 65.0601 38.5067 63.2761 36.8832C61.1554 34.943 59.1358 32.8749 57.1969 30.7461C55.5542 28.9407 55.5408 26.3807 57.1632 24.8448C66.5816 15.9524 76.8415 8.23219 88.8921 3.2538C94.8502 0.794923 101.145 -0.431148 107.641 0.127994C117.087 0.949866 123.031 7.55852 122.984 18.1688V18.1755Z" fill="url(#paint0_linear_18_49)" />
		<path d="M18.2779 120C14.9522 119.899 11.8016 119.326 8.799 117.871C2.49765 114.813 0.531841 108.487 1.31951 101.42C2.14757 93.9359 5.90415 87.6034 9.67418 81.3046C14.582 73.1061 20.4861 65.6756 26.9625 58.683C28.4234 57.1066 29.8641 55.4292 29.4938 53.1185C29.2986 51.9059 28.8408 50.5047 28.0195 49.6693C21.2872 42.8047 14.4002 36.0815 7.64106 29.2438C5.78297 27.3643 3.93161 25.3769 2.51111 23.1673C-3.85756 13.2442 2.94871 3.66471 11.1216 1.5292C16.2785 0.181865 21.1526 1.20584 25.064 4.89752C29.8439 9.40434 34.4218 14.1402 38.9862 18.8693C46.0416 26.1786 53.0162 33.5755 60.0177 40.9386C60.3139 41.2552 60.5899 41.5921 60.8524 41.9356C61.5863 42.9057 61.4314 43.4716 60.3071 44.1789C57.4729 45.9574 54.5174 47.682 52.0669 49.9253C47.9805 53.6642 46.2099 58.5819 46.3445 64.1329C46.3782 65.6284 46.1089 66.6794 44.7423 67.6966C43.315 68.761 42.386 70.499 41.2415 71.9474C36.1722 78.327 31.1028 84.7134 26.02 91.0863C24.7543 92.6694 24.1754 94.367 24.7476 96.388C25.165 97.8633 26.3701 98.7122 27.8108 98.18C29.817 97.4322 31.9039 96.6979 33.6476 95.5122C39.7537 91.3625 45.7319 87.0173 51.7505 82.7395C54.4703 80.8061 56.0322 80.8533 58.3413 83.1976C61.2025 86.0944 64.0099 89.0451 66.7566 92.0563C67.928 93.343 67.8539 94.3199 66.5748 95.4381C56.7929 103.98 46.3917 111.586 34.2266 116.423C31.2711 117.595 28.1474 118.39 25.0438 119.111C22.8424 119.623 20.54 119.724 18.2847 120.007L18.2779 120Z" fill="url(#paint1_linear_18_49)" />
		<path d="M230.619 22.4195C247.665 22.4195 264.576 21.3147 281.279 22.7092C300.169 24.2923 308.82 41.3495 300.957 58.629C298.479 64.0723 296.184 65.9518 285.944 70.7752C288.664 75.1877 291.33 79.5935 294.083 83.9454C296.85 88.3242 299.705 92.6424 302.963 97.668C296.513 97.668 290.717 97.7825 284.941 97.5534C284.012 97.5197 282.921 96.1118 282.288 95.1013C278.431 88.9036 274.62 82.6789 270.931 76.3801C269.302 73.5979 267.201 72.3853 263.916 72.5133C258.315 72.7289 252.7 72.5739 246.776 72.5739V97.4591H230.612V22.4195H230.619ZM246.534 57.019C257.278 57.019 267.828 57.2817 278.35 56.9045C283.406 56.7226 286.752 52.3101 286.819 47.2845C286.893 41.9019 283.79 37.6915 278.283 37.4692C267.78 37.0448 257.245 37.348 246.534 37.348V57.019Z" fill="white" />
		<path d="M156.032 96.1051C142.406 92.0294 133.89 80.3548 133.123 66.1472C132.719 58.7032 132.86 51.2659 135.506 44.1385C140.407 30.9279 149.906 23.0595 163.869 21.8335C173.529 20.9847 183.513 20.439 193.006 21.9278C207.5 24.2048 218.11 37.9273 219.51 52.4785C220.224 59.8888 219.988 67.0499 217.787 74.1032C213.182 88.8497 201.589 97.9172 186.159 98.9143C183.688 99.0759 181.204 98.9345 178.72 98.9345C178.666 99.3117 163.283 98.281 156.026 96.1051H156.032ZM176.216 84.0465L176.243 83.649C178.202 83.649 180.161 83.7635 182.113 83.6288C193.053 82.8675 199.085 78.6841 201.556 69.8052C203.488 62.8934 203.643 55.8266 201.286 49.0024C198.681 41.4573 193.046 36.8629 185.223 35.9333C179.461 35.2461 173.55 35.7986 167.706 35.7581C163.209 35.7244 159.87 38.0823 156.618 40.8241C147.765 48.2883 147.725 67.3059 153.461 75.336C156.295 79.3106 160.099 82.0053 164.966 82.7867C168.689 83.3863 172.466 83.6355 176.216 84.0465Z" fill="white" />
		<path d="M605.219 21.7324V37.0785C602.392 37.0785 599.577 37.1189 596.77 37.0718C588.665 36.937 580.566 36.6406 572.46 36.6608C563.796 36.6743 557.326 41.1205 554.889 48.4297C554.532 49.5076 554.404 50.6596 554.095 52.1619H601.193V66.2886H555.407C555.078 72.3179 559.649 78.839 566.132 81.1968C568.892 82.2006 571.962 82.7328 574.897 82.7867C585.191 82.9753 595.491 82.8608 605.993 82.8608V97.7959C599.207 97.7959 592.334 97.8431 585.467 97.7825C580.768 97.7353 576.069 97.3581 571.369 97.4389C550.23 97.8094 539.378 82.14 536.995 66.6187C535.393 56.1971 536.382 46.274 541.822 37.1593C547.423 27.7617 555.993 22.3656 566.819 21.8739C579.455 21.3012 592.138 21.7391 605.206 21.7391L605.219 21.7324Z" fill="white" />
		<path d="M393.982 96.7518C388.375 97.0415 383.447 97.4389 378.519 97.4255C377.515 97.4255 376.122 96.0781 375.577 95.007C373.456 90.8572 371.611 86.566 369.598 82.1804C357.467 82.1804 345.322 82.14 333.184 82.268C332.255 82.2747 330.908 83.3054 330.491 84.2014C328.862 87.7382 327.616 91.4501 326.014 95.0003C325.59 95.9367 324.412 97.1223 323.543 97.1627C318.474 97.3648 313.384 97.2638 307.642 97.2638C308.941 94.01 309.964 91.2682 311.116 88.5803C319.464 69.1046 327.933 49.6828 336.159 30.16C338.772 23.9488 342.771 20.6815 349.691 21.6449C350.715 21.7863 351.785 21.7527 352.822 21.6583C358.234 21.1531 361.681 23.5783 363.856 28.4893C369.746 41.8077 375.853 55.0317 381.757 68.3501C385.857 77.5995 389.768 86.9365 393.989 96.7585L393.982 96.7518ZM363.768 68.1749C359.19 57.8274 354.855 48.0189 350.136 37.348C345.416 48.066 341.087 57.9083 336.57 68.1749H363.768Z" fill="white" />
		<path d="M462.792 82.1804V96.4487C449.779 96.4487 436.779 97.5872 424.062 96.1522C408.881 94.4479 399.422 83.7635 396.749 68.5791C395.066 59.0333 395.524 49.6087 398.998 40.4738C403.334 29.0821 412.011 23.0596 423.793 21.82C430.229 21.1396 436.793 21.6785 443.303 21.6785C449.813 21.6785 456.323 21.6785 463.082 21.6785V37.0583C456.188 37.0583 449.422 37.0583 442.656 37.0583C438.213 37.0583 433.77 36.9842 429.333 37.1122C420.602 37.3615 414.361 42.1445 413.439 50.7674C412.806 56.7024 413.304 63.0416 414.724 68.8486C416.865 77.5995 423.665 82.1131 432.659 82.1602C442.562 82.2141 452.472 82.1737 462.786 82.1737L462.792 82.1804Z" fill="white" />
		<path d="M532.114 82.1871V97.8094C524.116 97.8094 516.192 98.0048 508.275 97.7488C501.395 97.5265 494.454 97.2637 487.675 96.1589C479.01 94.751 473.752 88.7553 473.618 79.9236C473.322 60.7174 473.524 41.5045 473.524 21.9951H489.802C489.869 22.9787 490.004 24.097 490.011 25.2152C490.058 41.3024 490.098 57.3828 490.125 73.4699C490.139 80.22 491.849 82.0726 498.702 82.14C508.504 82.241 518.306 82.1804 528.102 82.1871C529.374 82.1871 530.64 82.1871 532.114 82.1871Z" fill="white" />
	</g>
	<defs>
		<linearGradient id="paint0_linear_18_49" x1="51.2793" y1="58.7571" x2="122.984" y2="58.7571" gradientUnits="userSpaceOnUse">
			<stop stop-color="white" />
			<stop offset="1" stop-color="white" />
		</linearGradient>
		<linearGradient id="paint1_linear_18_49" x1="-3.4385e-06" y1="60.4816" x2="67.5847" y2="60.4816" gradientUnits="userSpaceOnUse">
			<stop stop-color="white" />
			<stop offset="1" stop-color="white" />
		</linearGradient>
		<clipPath id="clip0_18_49">
			<rect width="606" height="120" fill="white" />
		</clipPath>
	</defs>
</svg>
