<svg width="51" height="32" viewBox="0 0 51 32" fill="none" xmlns="http://www.w3.org/2000/svg">
<g id="Payment icon" clip-path="url(#clip0_209_4871)">
<path id="Vector" d="M47.0002 0H4.3335C2.06683 0 0.333496 1.73333 0.333496 4V28C0.333496 30.2667 2.20016 32 4.3335 32H47.0002C49.2668 32 51.0002 30.2667 51.0002 28V4C51.0002 1.73333 49.1335 0 47.0002 0Z" fill="white"/>
<path id="Vector_2" d="M47.0003 1.3335C48.467 1.3335 49.667 2.5335 49.667 4.00016V28.0002C49.667 29.4668 48.467 30.6668 47.0003 30.6668H4.33366C2.86699 30.6668 1.66699 29.4668 1.66699 28.0002V4.00016C1.66699 2.5335 2.86699 1.3335 4.33366 1.3335H47.0003Z" fill="#006FCF"/>
<path id="Vector_3" d="M12.295 13.6905L13.327 16.1918H11.271L12.295 13.6905ZM33.7283 13.7945H29.759V14.8972H33.6643V16.5492H29.767V17.7785H33.7363V18.7638L36.5057 15.7705L33.7363 12.6505L33.7283 13.7945ZM14.9777 10.6745H20.3043L21.487 13.2545L22.583 10.6665H36.4097L37.847 12.2532L39.3337 10.6665H45.6843L40.9923 15.8025L45.6363 20.9065H39.191L37.7537 19.3198L36.2537 20.9065H13.707L13.0483 19.3198H11.5417L10.8817 20.9065H5.66699L10.0483 10.6665H14.6217L14.9777 10.6745ZM26.5283 12.1118H23.543L21.543 16.8265L19.3763 12.1118H16.4137V18.5252L13.667 12.1118H11.0097L7.83366 19.4612H9.90699L10.5657 17.8745H14.027L14.6857 19.4612H18.3123V14.2145L20.647 19.4692H22.2337L24.5537 14.2305V19.4705H26.4977L26.5297 12.1105L26.5283 12.1118ZM38.9817 15.8025L42.3563 12.1118H39.927L37.7923 14.4132L35.7283 12.1118H27.8697V19.4692H35.6163L37.7683 17.1518L39.8323 19.4692H42.3323L38.983 15.8025H38.9817Z" fill="white"/>
</g>
<defs>
<clipPath id="clip0_209_4871">
<rect width="50.6667" height="32" fill="white" transform="translate(0.333496)"/>
</clipPath>
</defs>
</svg>
