<svg width="32" height="32" viewBox="0 0 32 32" fill="none" xmlns="http://www.w3.org/2000/svg">
<rect width="32" height="32" rx="16" fill="#E2E2E4"/>
<path d="M15.7845 14.8888C17.6255 14.8888 19.1178 13.3965 19.1178 11.5555C19.1178 9.71455 17.6255 8.22217 15.7845 8.22217C13.9436 8.22217 12.4512 9.71455 12.4512 11.5555C12.4512 13.3965 13.9436 14.8888 15.7845 14.8888Z" fill="#110C22"/>
<path d="M15.7842 16C13.152 16 10.7787 17.4611 9.58978 19.8133C9.27644 20.4322 9.24867 21.1611 9.51311 21.8144C9.78644 22.4889 10.3364 23.0133 11.022 23.2511C12.5598 23.7844 14.162 24.0556 15.7842 24.0556C17.4064 24.0556 19.0087 23.7844 20.5464 23.2511C21.2331 23.0133 21.7831 22.4889 22.0553 21.8144C22.3198 21.1611 22.2909 20.4322 21.9787 19.8133C20.7898 17.4611 18.4153 16 15.7842 16Z" fill="#110C22"/>
</svg>
