<svg width="20" height="20" viewBox="0 0 20 20" fill="none" xmlns="http://www.w3.org/2000/svg">
<g clip-path="url(#clip0_37_327)">
<path d="M11.6667 6.66663H8.33337C6.26504 6.66663 5.83337 7.09829 5.83337 9.16663V18.3333H14.1667V9.16663C14.1667 7.09829 13.735 6.66663 11.6667 6.66663Z" stroke="white" stroke-opacity="0.9" stroke-width="1.5" stroke-linejoin="round"/>
<path d="M9.16663 10L10.8333 10M9.16663 12.5H10.8333M9.16663 15H10.8333" stroke="white" stroke-opacity="0.9" stroke-width="1.5" stroke-linecap="round" stroke-linejoin="round"/>
<path d="M17.5 18.3333V6.82132C17.5 5.79775 17.5 5.28596 17.2511 4.87468C17.0022 4.46339 16.5539 4.23451 15.6574 3.77676L12.0394 1.92943C11.0723 1.43566 10.8334 1.60968 10.8334 2.69057V6.41954" stroke="white" stroke-opacity="0.9" stroke-width="1.5" stroke-linecap="round" stroke-linejoin="round"/>
<path d="M2.5 18.3333V10.8333C2.5 10.1439 2.64389 10 3.33333 10H5.83333" stroke="white" stroke-opacity="0.9" stroke-width="1.5" stroke-linecap="round" stroke-linejoin="round"/>
<path d="M18.3333 18.3333H1.66663" stroke="white" stroke-opacity="0.9" stroke-width="1.5" stroke-linecap="round" stroke-linejoin="round"/>
</g>
<defs>
<clipPath id="clip0_37_327">
<rect width="20" height="20" fill="white"/>
</clipPath>
</defs>
</svg>
