<svg width="18" height="18" viewBox="0 0 18 18" fill="none" xmlns="http://www.w3.org/2000/svg">
<g id="Group">
<path id="Vector" d="M10.734 4.93005L13.494 2.17005C13.8038 1.8603 14.2239 1.68628 14.6619 1.68628C15.1 1.68628 15.5201 1.8603 15.8299 2.17005C16.1396 2.4798 16.3136 2.89991 16.3136 3.33796C16.3136 3.77602 16.1396 4.19613 15.8299 4.50588L13.0699 7.26588L14.5632 14.6967C14.6182 14.97 14.5324 15.2525 14.3357 15.45L13.7857 16C13.6877 16.098 13.5669 16.17 13.4341 16.2096C13.3013 16.2491 13.1608 16.2549 13.0252 16.2264C12.8896 16.198 12.7632 16.1362 12.6575 16.0466C12.5518 15.957 12.4702 15.8425 12.4199 15.7134L10.2332 10.1025L7.39486 12.9409L7.54652 14.7492C7.55673 14.87 7.54047 14.9915 7.49888 15.1054C7.45728 15.2192 7.39135 15.3226 7.30569 15.4084L6.40069 16.3134L4.63319 13.3667L1.68652 11.5992L2.59152 10.6942C2.6772 10.6085 2.7806 10.5425 2.89446 10.5009C3.00832 10.4593 3.12991 10.4431 3.25069 10.4534L5.05902 10.605L7.89736 7.76671L2.28736 5.58005C2.1582 5.52984 2.04359 5.44822 1.95392 5.34257C1.86425 5.23692 1.80234 5.11058 1.77379 4.97497C1.74525 4.83937 1.75097 4.69879 1.79045 4.56595C1.82992 4.43312 1.90189 4.31222 1.99986 4.21421L2.54986 3.66421C2.64693 3.56711 2.76651 3.49552 2.89795 3.45583C3.02938 3.41614 3.1686 3.40957 3.30319 3.43671L10.734 4.93005Z" stroke="#8D8A95" stroke-width="1.5" stroke-linecap="round" stroke-linejoin="round"/>
</g>
</svg>
