<svg width="18" height="18" viewBox="0 0 18 18" fill="none" xmlns="http://www.w3.org/2000/svg">
	<g id="Group">
		<path id="Vector" d="M9 1.5C13.1517 1.5 16.5 4.84833 16.5 9C16.5 13.1517 13.1517 16.5 9 16.5" stroke="#fff" stroke-width="1.5" stroke-linecap="round" stroke-linejoin="round" />
		<path id="Vector_2" d="M9 16.5C4.84833 16.5 1.5 13.1517 1.5 9C1.5 4.84833 4.84833 1.5 9 1.5" stroke="#fff" stroke-width="1.5" stroke-linecap="round" stroke-linejoin="round" />
		<path id="Vector_3" d="M7.47324 2.38332C5.06491 6.40416 5.06491 11.5967 7.47324 15.6175C7.62767 15.886 7.85014 16.109 8.11825 16.2641C8.38635 16.4192 8.6906 16.5008 9.00033 16.5008C9.31005 16.5008 9.6143 16.4192 9.8824 16.2641C10.1505 16.109 10.373 15.886 10.5274 15.6175C12.9357 11.5967 12.9357 6.40416 10.5274 2.38332C10.373 2.11484 10.1505 1.89182 9.8824 1.73674C9.6143 1.58166 9.31005 1.5 9.00033 1.5C8.6906 1.5 8.38635 1.58166 8.11825 1.73674C7.85014 1.89182 7.62767 2.11484 7.47324 2.38332Z" stroke="#fff" stroke-width="1.5" stroke-linecap="round" stroke-linejoin="round" />
		<path id="Vector_4" d="M1.5 9H16.5" stroke="#fff" stroke-width="1.5" stroke-linecap="round" stroke-linejoin="round" />
	</g>
</svg>
