<svg width="16" height="16" viewBox="0 0 16 16" fill="none" xmlns="http://www.w3.org/2000/svg">
<g id="Group">
<path id="Vector" d="M8.26081 12.326C8.10081 12.2283 7.89958 12.2283 7.73958 12.326L4.12771 14.532C3.74816 14.7638 3.27756 14.4219 3.38074 13.9893L4.36268 9.87222C4.40618 9.68985 4.34399 9.49846 4.2016 9.37649L0.988253 6.62395C0.650473 6.33461 0.830255 5.78134 1.2736 5.74582L5.49158 5.40789C5.67849 5.39291 5.84131 5.27462 5.91331 5.10148L7.53853 1.19359C7.70932 0.782923 8.29107 0.782923 8.46186 1.19359L10.0871 5.10148C10.1591 5.27462 10.3219 5.39291 10.5088 5.40788L14.7274 5.74582C15.1708 5.78133 15.3506 6.33466 15.0128 6.62398L11.7988 9.37649C11.6564 9.49846 11.5942 9.68986 11.6377 9.87225L12.6197 13.9893C12.7228 14.4219 12.2522 14.7638 11.8727 14.532L8.26081 12.326Z" fill="#F2AA09"/>
</g>
</svg>
